<svg width="900" height="420" viewBox="0 0 900 420" xmlns="http://www.w3.org/2000/svg">
  <defs>
    <style type="text/css">
      @font-face { font-family: 'Segoe UI'; }
    </style>
  </defs>
  <rect x="0" y="0" width="900" height="420" fill="#301B32"/>

  <g transform="translate(40,50)">
    <rect x="0" y="0" width="380" height="80" rx="8" fill="#FF1493"/>
    <text x="190" y="50" text-anchor="middle" fill="#FFFFFF" font-size="28" font-family="Segoe UI, Arial">TRAIN ME!</text>
  </g>

  <g transform="translate(480,50)">
    <rect x="0" y="0" width="380" height="80" rx="8" fill="#FF1493"/>
    <g transform="translate(20,20)">
      <rect x="0" y="0" width="34" height="24" rx="3" fill="#FF69B4"/>
      <rect x="4" y="4" width="26" height="16" fill="#301B32"/>
    </g>
    <g transform="translate(60,20)">
      <rect x="0" y="0" width="18" height="12" fill="#FF69B4"/>
      <rect x="6" y="12" width="6" height="6" fill="#FF69B4"/>
    </g>
    <text x="200" y="50" text-anchor="middle" fill="#FFFFFF" font-size="24" font-family="Segoe UI, Arial">Play Per‑Monitor</text>
  </g>

  <g transform="translate(40,170)" opacity="0.55">
    <rect x="0" y="0" width="380" height="80" rx="8" fill="#A94A7F"/>
    <text x="190" y="50" text-anchor="middle" fill="#FFFFFF" font-size="28" font-family="Segoe UI, Arial">TRAIN ME!</text>
    <g transform="translate(330,20)">
      <rect x="0" y="8" width="24" height="18" rx="4" fill="#FF69B4"/>
      <rect x="6" y="0" width="12" height="12" rx="6" fill="#FF69B4"/>
    </g>
  </g>

  <g transform="translate(480,170)" opacity="0.55">
    <rect x="0" y="0" width="380" height="80" rx="8" fill="#A94A7F"/>
    <g transform="translate(20,20)">
      <rect x="0" y="0" width="34" height="24" rx="3" fill="#FF69B4"/>
      <rect x="4" y="4" width="26" height="16" fill="#301B32"/>
    </g>
    <g transform="translate(60,20)">
      <rect x="0" y="0" width="18" height="12" fill="#FF69B4"/>
      <rect x="6" y="12" width="6" height="6" fill="#FF69B4"/>
    </g>
    <text x="200" y="50" text-anchor="middle" fill="#FFFFFF" font-size="24" font-family="Segoe UI, Arial">Play Per‑Monitor</text>
  </g>

  <g transform="translate(40,300)">
    <rect x="0" y="0" width="820" height="80" rx="8" fill="#35203D"/>
    <circle cx="40" cy="40" r="8" fill="#FF69B4"/>
    <rect x="60" y="30" width="300" height="20" rx="4" fill="#4A2A57"/>
    <rect x="380" y="30" width="300" height="20" rx="4" fill="#4A2A57"/>
  </g>
</svg>