<svg width="1200" height="950" viewBox="0 0 1200 950" xmlns="http://www.w3.org/2000/svg">
  <rect x="0" y="0" width="1200" height="950" fill="#301B32"/>
  <rect x="0" y="0" width="1200" height="60" fill="#2D0A30"/>
  <text x="24" y="36" fill="#FFFFFF" font-size="22" font-family="Segoe UI, Arial">TrainMe Launcher</text>
  <rect x="1100" y="18" width="24" height="24" rx="4" fill="#5E2A67"/>
  <text x="1108" y="34" fill="#FFFFFF" font-size="16" font-family="Segoe UI, Arial">-</text>
  <rect x="1136" y="18" width="24" height="24" rx="4" fill="#AA2E50"/>
  <text x="1144" y="34" fill="#FFFFFF" font-size="16" font-family="Segoe UI, Arial">x</text>

  <text x="24" y="92" fill="#E5C7EA" font-size="13" font-family="Segoe UI, Arial">Overlay video player</text>

  <rect x="24" y="110" width="1152" height="140" rx="8" fill="#3A2341" stroke="#4F2A59"/>
  <text x="40" y="135" fill="#FFFFFF" font-size="18" font-family="Segoe UI, Arial">Monitors</text>
  <text x="1040" y="135" fill="#CFC3D8" font-size="14" font-family="Segoe UI, Arial">Selected: 2</text>
  <rect x="40" y="150" width="800" height="86" rx="6" fill="#41284B" stroke="#5B2E6B"/>
  <text x="56" y="176" fill="#FFFFFF" font-size="14" font-family="Segoe UI, Arial">Monitor 1 (1920×1080)</text>
  <text x="56" y="204" fill="#FFFFFF" font-size="14" font-family="Segoe UI, Arial">Monitor 2 (2560×1440)</text>

  <rect x="24" y="260" width="560" height="260" rx="8" fill="#3A2341" stroke="#4F2A59"/>
  <text x="40" y="285" fill="#FFFFFF" font-size="18" font-family="Segoe UI, Arial">Videos in App Folder</text>
  <rect x="40" y="300" width="520" height="170" rx="6" fill="#41284B" stroke="#5B2E6B"/>
  <text x="56" y="326" fill="#FFFFFF" font-size="14" font-family="Segoe UI, Arial">hypno1.mp4</text>
  <text x="56" y="354" fill="#FFFFFF" font-size="14" font-family="Segoe UI, Arial">hypno2.mp4</text>
  <text x="56" y="382" fill="#FFFFFF" font-size="14" font-family="Segoe UI, Arial">loop.mp4</text>
  <rect x="40" y="478" width="110" height="30" rx="6" fill="#5E2A67"/><text x="54" y="499" fill="#FFFFFF" font-size="14" font-family="Segoe UI, Arial">Refresh</text>
  <rect x="160" y="478" width="120" height="30" rx="6" fill="#5E2A67"/><text x="178" y="499" fill="#FFFFFF" font-size="14" font-family="Segoe UI, Arial">Select All</text>
  <rect x="290" y="478" width="150" height="30" rx="6" fill="#5E2A67"/><text x="310" y="499" fill="#FFFFFF" font-size="14" font-family="Segoe UI, Arial">Clear Selection</text>

  <rect x="616" y="260" width="560" height="260" rx="8" fill="#3A2341" stroke="#4F2A59"/>
  <text x="632" y="285" fill="#FFFFFF" font-size="18" font-family="Segoe UI, Arial">Added Files</text>
  <rect x="632" y="300" width="520" height="170" rx="6" fill="#41284B" stroke="#5B2E6B"/>
  <text x="648" y="326" fill="#FFFFFF" font-size="14" font-family="Segoe UI, Arial">C:\Videos\session\intro.mp4</text>
  <text x="648" y="354" fill="#FFFFFF" font-size="14" font-family="Segoe UI, Arial">D:\Clips\focus.mp4</text>
  <text x="648" y="382" fill="#FFFFFF" font-size="14" font-family="Segoe UI, Arial">E:\Archive\ambient.mp4</text>
  <rect x="632" y="478" width="100" height="30" rx="6" fill="#5E2A67"/><text x="646" y="499" fill="#FFFFFF" font-size="14" font-family="Segoe UI, Arial">Browse</text>
  <rect x="742" y="478" width="160" height="30" rx="6" fill="#5E2A67"/><text x="760" y="499" fill="#FFFFFF" font-size="14" font-family="Segoe UI, Arial">Remove Selected</text>
  <rect x="912" y="478" width="110" height="30" rx="6" fill="#5E2A67"/><text x="926" y="499" fill="#FFFFFF" font-size="14" font-family="Segoe UI, Arial">Clear All</text>

  <rect x="24" y="532" width="560" height="170" rx="8" fill="#3A2341" stroke="#4F2A59"/>
  <text x="40" y="557" fill="#FFFFFF" font-size="18" font-family="Segoe UI, Arial">Options</text>
  <text x="40" y="585" fill="#CFC3D8" font-size="14" font-family="Segoe UI, Arial">Opacity (overlay visibility)</text>
  <rect x="40" y="595" width="420" height="8" rx="4" fill="#5E2A67"/><circle cx="240" cy="599" r="10" fill="#AA2E50"/>
  <text x="40" y="623" fill="#CFC3D8" font-size="14" font-family="Segoe UI, Arial">Volume (audio level)</text>
  <rect x="40" y="633" width="420" height="8" rx="4" fill="#5E2A67"/><circle cx="320" cy="637" r="10" fill="#AA2E50"/>
  <rect x="480" y="585" width="90" height="30" rx="6" fill="#5E2A67"/><text x="492" y="605" fill="#FFFFFF" font-size="14" font-family="Segoe UI, Arial">Shuffle</text>

  <rect x="616" y="532" width="560" height="170" rx="8" fill="#3A2341" stroke="#4F2A59"/>
  <text x="632" y="557" fill="#FFFFFF" font-size="18" font-family="Segoe UI, Arial">Actions</text>
  <rect x="632" y="574" width="240" height="38" rx="8" fill="#6C3A77"/><text x="648" y="599" fill="#FFFFFF" font-size="14" font-family="Segoe UI, Arial">Play Same Video on Monitors</text>
  <text x="632" y="618" fill="#CFC3D8" font-size="12" font-family="Segoe UI, Arial">All selected monitors play the same queue</text>
  <rect x="892" y="574" width="240" height="38" rx="8" fill="#6C3A77"/><text x="908" y="599" fill="#FFFFFF" font-size="14" font-family="Segoe UI, Arial">Play Per-Monitor</text>
  <text x="892" y="618" fill="#CFC3D8" font-size="12" font-family="Segoe UI, Arial">Assign one video per selected monitor</text>
  <rect x="632" y="642" width="120" height="34" rx="8" fill="#5E2A67"/><text x="648" y="664" fill="#FFFFFF" font-size="14" font-family="Segoe UI, Arial">Pause</text>
  <rect x="762" y="642" width="120" height="34" rx="8" fill="#5E2A67"/><text x="778" y="664" fill="#FFFFFF" font-size="14" font-family="Segoe UI, Arial">Resume</text>
  <rect x="892" y="642" width="120" height="34" rx="8" fill="#AA2E50"/><text x="908" y="664" fill="#FFFFFF" font-size="14" font-family="Segoe UI, Arial">Stop All</text>

  <rect x="24" y="718" width="1152" height="60" rx="8" fill="#35223D" stroke="#4F2A59"/>
  <text x="40" y="752" fill="#FFFFFF" font-size="14" font-family="Segoe UI, Arial">Status: Playing on 2 monitors • Paused: No • Last message: Ready</text>

  <rect x="24" y="790" width="1152" height="130" rx="8" fill="#3A2341" stroke="#4F2A59"/>
  <text x="40" y="815" fill="#FFFFFF" font-size="18" font-family="Segoe UI, Arial">Quick Tips</text>
  <text x="40" y="840" fill="#CFC3D8" font-size="14" font-family="Segoe UI, Arial">1) Select monitors first</text>
  <text x="40" y="862" fill="#CFC3D8" font-size="14" font-family="Segoe UI, Arial">2) Pick videos from App Folder or Browse</text>
  <text x="40" y="884" fill="#CFC3D8" font-size="14" font-family="Segoe UI, Arial">3) Adjust options, then choose Play Same or Play Per‑Monitor</text>
</svg>