<svg width="980" height="600" viewBox="0 0 980 600" xmlns="http://www.w3.org/2000/svg">
  <rect x="0" y="0" width="980" height="600" fill="#301B32"/>

  <g transform="translate(40,40)">
    <rect x="0" y="0" width="420" height="72" rx="8" fill="#FF1493"/>
    <text x="210" y="45" text-anchor="middle" fill="#FFFFFF" font-size="26" font-family="Segoe UI, Arial">TRAIN ME!</text>
  </g>

  <g transform="translate(40,132)">
    <rect x="0" y="0" width="900" height="360" rx="10" fill="#35203D"/>

    <g transform="translate(20,24)">
      <rect x="0" y="0" width="860" height="80" rx="8" fill="#3F2548"/>
      <rect x="14" y="14" width="72" height="52" rx="6" fill="#5A4A70"/>
      <text x="104" y="46" fill="#FFFFFF" font-size="18" font-family="Segoe UI, Arial">C:\Videos\session\intro.mp4</text>
      <g transform="translate(760,20)">
        <rect x="0" y="0" width="80" height="40" rx="20" fill="#FF69B4"/>
        <text x="40" y="26" text-anchor="middle" fill="#301B32" font-size="16" font-family="Segoe UI, Arial">M0</text>
      </g>
    </g>

    <g transform="translate(20,114)">
      <rect x="0" y="0" width="860" height="80" rx="8" fill="#3F2548"/>
      <rect x="14" y="14" width="72" height="52" rx="6" fill="#5A4A70"/>
      <text x="104" y="46" fill="#FFFFFF" font-size="18" font-family="Segoe UI, Arial">D:\Clips\focus.mp4</text>
      <g transform="translate(760,20)">
        <rect x="0" y="0" width="80" height="40" rx="20" fill="#FF69B4"/>
        <text x="40" y="26" text-anchor="middle" fill="#301B32" font-size="16" font-family="Segoe UI, Arial">M1</text>
      </g>
    </g>

    <g transform="translate(20,204)">
      <rect x="0" y="0" width="860" height="80" rx="8" fill="#3F2548"/>
      <rect x="14" y="14" width="72" height="52" rx="6" fill="#5A4A70"/>
      <text x="104" y="46" fill="#FFFFFF" font-size="18" font-family="Segoe UI, Arial">E:\Archive\ambient.mp4</text>
      <g transform="translate(760,20)">
        <rect x="0" y="0" width="80" height="40" rx="20" fill="#FF69B4"/>
        <text x="40" y="26" text-anchor="middle" fill="#301B32" font-size="16" font-family="Segoe UI, Arial">M2</text>
      </g>
    </g>

    <g transform="translate(20,294)">
      <rect x="0" y="0" width="860" height="80" rx="8" fill="#3F2548"/>
      <rect x="14" y="14" width="72" height="52" rx="6" fill="#5A4A70"/>
      <text x="104" y="46" fill="#FFFFFF" font-size="18" font-family="Segoe UI, Arial">C:\Shows\loop.mp4</text>
      <g transform="translate(760,20)">
        <rect x="0" y="0" width="80" height="40" rx="20" fill="#FF69B4"/>
        <text x="40" y="26" text-anchor="middle" fill="#301B32" font-size="16" font-family="Segoe UI, Arial">M0</text>
      </g>
    </g>
  </g>

  <g transform="translate(40,520)">
    <rect x="0" y="0" width="900" height="40" rx="8" fill="#352A45"/>
    <g transform="translate(860,6)" opacity="0.6">
      <rect x="0" y="0" width="28" height="28" rx="6" fill="#A94A7F"/>
      <rect x="6" y="6" width="16" height="16" rx="8" fill="#FF69B4"/>
    </g>
  </g>
</svg>